<mxfile host="app.diagrams.net" modified="2023-03-23T20:42:08.908Z" agent="Mozilla/5.0 (Windows NT 10.0; Win64; x64) AppleWebKit/537.36 (KHTML, like Gecko) Chrome/111.0.0.0 Safari/537.36" etag="bUPNhQqe4UcbALCp-mZr" version="21.1.0" type="github">
  <diagram name="Page-1" id="FgP8BDgSYU1iSLKfVy64">
    <mxGraphModel dx="1247" dy="696" grid="1" gridSize="10" guides="1" tooltips="1" connect="1" arrows="1" fold="1" page="1" pageScale="1" pageWidth="827" pageHeight="1169" math="0" shadow="0">
      <root>
        <mxCell id="0" />
        <mxCell id="1" parent="0" />
        <mxCell id="3Rz-C_fRMMW0dZHXcKt9-9" style="edgeStyle=orthogonalEdgeStyle;rounded=0;orthogonalLoop=1;jettySize=auto;html=1;exitX=1;exitY=0.5;exitDx=0;exitDy=0;entryX=0.005;entryY=0.667;entryDx=0;entryDy=0;endArrow=none;endFill=0;startArrow=none;entryPerimeter=0;" parent="1" source="dIRDVUr5gUY7s9fhSYIf-25" target="dIRDVUr5gUY7s9fhSYIf-22" edge="1">
          <mxGeometry relative="1" as="geometry">
            <mxPoint x="430" y="255.0000000000001" as="targetPoint" />
            <Array as="points" />
          </mxGeometry>
        </mxCell>
        <mxCell id="eeULFgyOEKWC4nzDJ71u-9" value="0 ou 1" style="edgeLabel;html=1;align=center;verticalAlign=middle;resizable=0;points=[];" parent="3Rz-C_fRMMW0dZHXcKt9-9" vertex="1" connectable="0">
          <mxGeometry x="0.797" y="-2" relative="1" as="geometry">
            <mxPoint x="-8" y="6" as="offset" />
          </mxGeometry>
        </mxCell>
        <mxCell id="eeULFgyOEKWC4nzDJ71u-10" value="0 ou 1" style="edgeLabel;html=1;align=center;verticalAlign=middle;resizable=0;points=[];" parent="3Rz-C_fRMMW0dZHXcKt9-9" vertex="1" connectable="0">
          <mxGeometry x="-0.7766" y="2" relative="1" as="geometry">
            <mxPoint x="-3" y="-7" as="offset" />
          </mxGeometry>
        </mxCell>
        <mxCell id="3Rz-C_fRMMW0dZHXcKt9-10" style="edgeStyle=orthogonalEdgeStyle;rounded=0;orthogonalLoop=1;jettySize=auto;html=1;endArrow=diamond;endFill=1;entryX=0.5;entryY=0;entryDx=0;entryDy=0;exitX=0.477;exitY=1.038;exitDx=0;exitDy=0;exitPerimeter=0;" parent="1" source="dIRDVUr5gUY7s9fhSYIf-28" edge="1">
          <mxGeometry relative="1" as="geometry">
            <mxPoint x="280" y="430" as="targetPoint" />
            <mxPoint x="160" y="310" as="sourcePoint" />
          </mxGeometry>
        </mxCell>
        <mxCell id="eeULFgyOEKWC4nzDJ71u-1" value="4...*" style="edgeLabel;html=1;align=center;verticalAlign=middle;resizable=0;points=[];" parent="3Rz-C_fRMMW0dZHXcKt9-10" vertex="1" connectable="0">
          <mxGeometry x="-0.8846" y="4" relative="1" as="geometry">
            <mxPoint x="10" y="-5" as="offset" />
          </mxGeometry>
        </mxCell>
        <mxCell id="3Rz-C_fRMMW0dZHXcKt9-7" style="edgeStyle=orthogonalEdgeStyle;rounded=0;orthogonalLoop=1;jettySize=auto;html=1;endArrow=block;endFill=0;" parent="1" source="dIRDVUr5gUY7s9fhSYIf-16" edge="1">
          <mxGeometry relative="1" as="geometry">
            <mxPoint x="380.0526315789473" y="140" as="sourcePoint" />
            <mxPoint x="530" y="200" as="targetPoint" />
            <Array as="points">
              <mxPoint x="379" y="170" />
              <mxPoint x="530" y="170" />
            </Array>
          </mxGeometry>
        </mxCell>
        <mxCell id="3Rz-C_fRMMW0dZHXcKt9-8" style="edgeStyle=orthogonalEdgeStyle;rounded=0;orthogonalLoop=1;jettySize=auto;html=1;endArrow=block;endFill=0;exitX=0.511;exitY=0.988;exitDx=0;exitDy=0;exitPerimeter=0;" parent="1" source="dIRDVUr5gUY7s9fhSYIf-20" edge="1">
          <mxGeometry relative="1" as="geometry">
            <mxPoint x="530.0526315789473" y="200.0000000000001" as="targetPoint" />
            <mxPoint x="690.0526315789475" y="140" as="sourcePoint" />
            <Array as="points">
              <mxPoint x="682" y="170" />
              <mxPoint x="530" y="170" />
            </Array>
          </mxGeometry>
        </mxCell>
        <mxCell id="3Rz-C_fRMMW0dZHXcKt9-28" style="edgeStyle=orthogonalEdgeStyle;rounded=0;orthogonalLoop=1;jettySize=auto;html=1;endArrow=none;endFill=0;entryX=0.509;entryY=1;entryDx=0;entryDy=0;entryPerimeter=0;exitX=0;exitY=0.5;exitDx=0;exitDy=0;" parent="1" source="dIRDVUr5gUY7s9fhSYIf-39" target="dIRDVUr5gUY7s9fhSYIf-33" edge="1">
          <mxGeometry relative="1" as="geometry">
            <mxPoint x="300" y="580" as="targetPoint" />
            <mxPoint x="500" y="740" as="sourcePoint" />
            <Array as="points">
              <mxPoint x="490" y="740" />
              <mxPoint x="282" y="740" />
            </Array>
          </mxGeometry>
        </mxCell>
        <mxCell id="eeULFgyOEKWC4nzDJ71u-2" value="1" style="edgeLabel;html=1;align=center;verticalAlign=middle;resizable=0;points=[];" parent="3Rz-C_fRMMW0dZHXcKt9-28" vertex="1" connectable="0">
          <mxGeometry x="0.9192" y="2" relative="1" as="geometry">
            <mxPoint x="10" y="-3" as="offset" />
          </mxGeometry>
        </mxCell>
        <mxCell id="eeULFgyOEKWC4nzDJ71u-3" value="1" style="edgeLabel;html=1;align=center;verticalAlign=middle;resizable=0;points=[];" parent="3Rz-C_fRMMW0dZHXcKt9-28" vertex="1" connectable="0">
          <mxGeometry x="-0.9192" y="-2" relative="1" as="geometry">
            <mxPoint x="2" y="13" as="offset" />
          </mxGeometry>
        </mxCell>
        <mxCell id="3Rz-C_fRMMW0dZHXcKt9-16" style="edgeStyle=orthogonalEdgeStyle;rounded=0;orthogonalLoop=1;jettySize=auto;html=1;endArrow=none;endFill=0;startArrow=none;" parent="1" source="3Rz-C_fRMMW0dZHXcKt9-18" edge="1">
          <mxGeometry relative="1" as="geometry">
            <Array as="points">
              <mxPoint x="690" y="640" />
              <mxPoint x="640" y="640" />
            </Array>
            <mxPoint x="640" y="680" as="targetPoint" />
          </mxGeometry>
        </mxCell>
        <mxCell id="3Rz-C_fRMMW0dZHXcKt9-17" style="edgeStyle=orthogonalEdgeStyle;rounded=0;orthogonalLoop=1;jettySize=auto;html=1;exitX=0.5;exitY=1;exitDx=0;exitDy=0;entryX=0.25;entryY=0;entryDx=0;entryDy=0;endArrow=none;endFill=0;startArrow=none;" parent="1" source="3Rz-C_fRMMW0dZHXcKt9-19" edge="1">
          <mxGeometry relative="1" as="geometry">
            <Array as="points">
              <mxPoint x="500" y="640" />
              <mxPoint x="550" y="640" />
            </Array>
            <mxPoint x="550" y="680" as="targetPoint" />
          </mxGeometry>
        </mxCell>
        <mxCell id="eeULFgyOEKWC4nzDJ71u-6" value="0 ou 1" style="edgeLabel;html=1;align=center;verticalAlign=middle;resizable=0;points=[];" parent="3Rz-C_fRMMW0dZHXcKt9-17" vertex="1" connectable="0">
          <mxGeometry x="0.0957" y="-2" relative="1" as="geometry">
            <mxPoint x="59" y="24" as="offset" />
          </mxGeometry>
        </mxCell>
        <mxCell id="3Rz-C_fRMMW0dZHXcKt9-30" value="" style="edgeStyle=orthogonalEdgeStyle;rounded=0;orthogonalLoop=1;jettySize=auto;html=1;endArrow=none;endFill=0;" parent="1" source="dIRDVUr5gUY7s9fhSYIf-37" target="3Rz-C_fRMMW0dZHXcKt9-18" edge="1">
          <mxGeometry relative="1" as="geometry">
            <mxPoint x="650" y="540" as="sourcePoint" />
            <mxPoint x="650" y="680" as="targetPoint" />
            <Array as="points">
              <mxPoint x="650" y="560" />
              <mxPoint x="690" y="560" />
            </Array>
          </mxGeometry>
        </mxCell>
        <mxCell id="3Rz-C_fRMMW0dZHXcKt9-18" value="Creer" style="text;html=1;strokeColor=none;fillColor=none;align=center;verticalAlign=middle;whiteSpace=wrap;rounded=0;" parent="1" vertex="1">
          <mxGeometry x="670" y="584.5" width="40" height="30" as="geometry" />
        </mxCell>
        <mxCell id="3Rz-C_fRMMW0dZHXcKt9-32" value="" style="edgeStyle=orthogonalEdgeStyle;rounded=0;orthogonalLoop=1;jettySize=auto;html=1;exitX=0.391;exitY=1;exitDx=0;exitDy=0;entryX=0.5;entryY=0;entryDx=0;entryDy=0;endArrow=none;endFill=0;exitPerimeter=0;" parent="1" source="dIRDVUr5gUY7s9fhSYIf-37" target="3Rz-C_fRMMW0dZHXcKt9-19" edge="1">
          <mxGeometry relative="1" as="geometry">
            <mxPoint x="550" y="540" as="sourcePoint" />
            <mxPoint x="550" y="680" as="targetPoint" />
            <Array as="points">
              <mxPoint x="550" y="514" />
              <mxPoint x="550" y="560" />
              <mxPoint x="500" y="560" />
            </Array>
          </mxGeometry>
        </mxCell>
        <mxCell id="eeULFgyOEKWC4nzDJ71u-5" value="2 ou 4" style="edgeLabel;html=1;align=center;verticalAlign=middle;resizable=0;points=[];" parent="3Rz-C_fRMMW0dZHXcKt9-32" vertex="1" connectable="0">
          <mxGeometry x="-0.1563" y="-1" relative="1" as="geometry">
            <mxPoint x="47" y="-20" as="offset" />
          </mxGeometry>
        </mxCell>
        <mxCell id="3Rz-C_fRMMW0dZHXcKt9-19" value="Rejoindre" style="text;html=1;strokeColor=none;fillColor=none;align=center;verticalAlign=middle;whiteSpace=wrap;rounded=0;" parent="1" vertex="1">
          <mxGeometry x="470" y="585" width="60" height="30" as="geometry" />
        </mxCell>
        <mxCell id="dIRDVUr5gUY7s9fhSYIf-13" value="Pion" style="swimlane;fontStyle=1;align=center;verticalAlign=top;childLayout=stackLayout;horizontal=1;startSize=26;horizontalStack=0;resizeParent=1;resizeParentMax=0;resizeLast=0;collapsible=1;marginBottom=0;" parent="1" vertex="1">
          <mxGeometry x="270" y="30" width="220" height="86" as="geometry" />
        </mxCell>
        <mxCell id="dIRDVUr5gUY7s9fhSYIf-14" value="- rayon : int" style="text;strokeColor=none;fillColor=none;align=left;verticalAlign=top;spacingLeft=4;spacingRight=4;overflow=hidden;rotatable=0;points=[[0,0.5],[1,0.5]];portConstraint=eastwest;" parent="dIRDVUr5gUY7s9fhSYIf-13" vertex="1">
          <mxGeometry y="26" width="220" height="26" as="geometry" />
        </mxCell>
        <mxCell id="dIRDVUr5gUY7s9fhSYIf-15" value="" style="line;strokeWidth=1;fillColor=none;align=left;verticalAlign=middle;spacingTop=-1;spacingLeft=3;spacingRight=3;rotatable=0;labelPosition=right;points=[];portConstraint=eastwest;strokeColor=inherit;" parent="dIRDVUr5gUY7s9fhSYIf-13" vertex="1">
          <mxGeometry y="52" width="220" height="8" as="geometry" />
        </mxCell>
        <mxCell id="dIRDVUr5gUY7s9fhSYIf-16" value=" " style="text;strokeColor=none;fillColor=none;align=left;verticalAlign=top;spacingLeft=4;spacingRight=4;overflow=hidden;rotatable=0;points=[[0,0.5],[1,0.5]];portConstraint=eastwest;" parent="dIRDVUr5gUY7s9fhSYIf-13" vertex="1">
          <mxGeometry y="60" width="220" height="26" as="geometry" />
        </mxCell>
        <mxCell id="dIRDVUr5gUY7s9fhSYIf-17" value="Mur" style="swimlane;fontStyle=1;align=center;verticalAlign=top;childLayout=stackLayout;horizontal=1;startSize=26;horizontalStack=0;resizeParent=1;resizeParentMax=0;resizeLast=0;collapsible=1;marginBottom=0;" parent="1" vertex="1">
          <mxGeometry x="570" y="30" width="220" height="104" as="geometry" />
        </mxCell>
        <mxCell id="dIRDVUr5gUY7s9fhSYIf-18" value="- longueur : int&#xa;- largeur : int&#xa;" style="text;strokeColor=none;fillColor=none;align=left;verticalAlign=top;spacingLeft=4;spacingRight=4;overflow=hidden;rotatable=0;points=[[0,0.5],[1,0.5]];portConstraint=eastwest;" parent="dIRDVUr5gUY7s9fhSYIf-17" vertex="1">
          <mxGeometry y="26" width="220" height="44" as="geometry" />
        </mxCell>
        <mxCell id="dIRDVUr5gUY7s9fhSYIf-19" value="" style="line;strokeWidth=1;fillColor=none;align=left;verticalAlign=middle;spacingTop=-1;spacingLeft=3;spacingRight=3;rotatable=0;labelPosition=right;points=[];portConstraint=eastwest;strokeColor=inherit;" parent="dIRDVUr5gUY7s9fhSYIf-17" vertex="1">
          <mxGeometry y="70" width="220" height="8" as="geometry" />
        </mxCell>
        <mxCell id="dIRDVUr5gUY7s9fhSYIf-20" value=" " style="text;strokeColor=none;fillColor=none;align=left;verticalAlign=top;spacingLeft=4;spacingRight=4;overflow=hidden;rotatable=0;points=[[0,0.5],[1,0.5]];portConstraint=eastwest;" parent="dIRDVUr5gUY7s9fhSYIf-17" vertex="1">
          <mxGeometry y="78" width="220" height="26" as="geometry" />
        </mxCell>
        <mxCell id="eeULFgyOEKWC4nzDJ71u-18" style="edgeStyle=orthogonalEdgeStyle;rounded=0;orthogonalLoop=1;jettySize=auto;html=1;entryX=0.25;entryY=0;entryDx=0;entryDy=0;endArrow=none;endFill=0;" parent="1" source="dIRDVUr5gUY7s9fhSYIf-21" target="dIRDVUr5gUY7s9fhSYIf-34" edge="1">
          <mxGeometry relative="1" as="geometry" />
        </mxCell>
        <mxCell id="dIRDVUr5gUY7s9fhSYIf-21" value="Élement" style="swimlane;fontStyle=3;align=center;verticalAlign=top;childLayout=stackLayout;horizontal=1;startSize=26;horizontalStack=0;resizeParent=1;resizeParentMax=0;resizeLast=0;collapsible=1;marginBottom=0;" parent="1" vertex="1">
          <mxGeometry x="435" y="200" width="220" height="114" as="geometry" />
        </mxCell>
        <mxCell id="dIRDVUr5gUY7s9fhSYIf-22" value="- posX : int&#xa;- posY : int&#xa;- couleur : string&#xa;" style="text;strokeColor=none;fillColor=none;align=left;verticalAlign=top;spacingLeft=4;spacingRight=4;overflow=hidden;rotatable=0;points=[[0,0.5],[1,0.5]];portConstraint=eastwest;" parent="dIRDVUr5gUY7s9fhSYIf-21" vertex="1">
          <mxGeometry y="26" width="220" height="54" as="geometry" />
        </mxCell>
        <mxCell id="dIRDVUr5gUY7s9fhSYIf-23" value="" style="line;strokeWidth=1;fillColor=none;align=left;verticalAlign=middle;spacingTop=-1;spacingLeft=3;spacingRight=3;rotatable=0;labelPosition=right;points=[];portConstraint=eastwest;strokeColor=inherit;" parent="dIRDVUr5gUY7s9fhSYIf-21" vertex="1">
          <mxGeometry y="80" width="220" height="8" as="geometry" />
        </mxCell>
        <mxCell id="dIRDVUr5gUY7s9fhSYIf-24" value="+ ecouteur()" style="text;strokeColor=none;fillColor=none;align=left;verticalAlign=top;spacingLeft=4;spacingRight=4;overflow=hidden;rotatable=0;points=[[0,0.5],[1,0.5]];portConstraint=eastwest;" parent="dIRDVUr5gUY7s9fhSYIf-21" vertex="1">
          <mxGeometry y="88" width="220" height="26" as="geometry" />
        </mxCell>
        <mxCell id="dIRDVUr5gUY7s9fhSYIf-25" value="Case" style="swimlane;fontStyle=1;align=center;verticalAlign=top;childLayout=stackLayout;horizontal=1;startSize=26;horizontalStack=0;resizeParent=1;resizeParentMax=0;resizeLast=0;collapsible=1;marginBottom=0;" parent="1" vertex="1">
          <mxGeometry x="80" y="200" width="220" height="124" as="geometry" />
        </mxCell>
        <mxCell id="dIRDVUr5gUY7s9fhSYIf-26" value="- posX : int&#xa;- posY : int&#xa;- longueur : int&#xa;- largeur : int&#xa;&#xa;" style="text;strokeColor=none;fillColor=none;align=left;verticalAlign=top;spacingLeft=4;spacingRight=4;overflow=hidden;rotatable=0;points=[[0,0.5],[1,0.5]];portConstraint=eastwest;" parent="dIRDVUr5gUY7s9fhSYIf-25" vertex="1">
          <mxGeometry y="26" width="220" height="64" as="geometry" />
        </mxCell>
        <mxCell id="dIRDVUr5gUY7s9fhSYIf-27" value="" style="line;strokeWidth=1;fillColor=none;align=left;verticalAlign=middle;spacingTop=-1;spacingLeft=3;spacingRight=3;rotatable=0;labelPosition=right;points=[];portConstraint=eastwest;strokeColor=inherit;" parent="dIRDVUr5gUY7s9fhSYIf-25" vertex="1">
          <mxGeometry y="90" width="220" height="8" as="geometry" />
        </mxCell>
        <mxCell id="dIRDVUr5gUY7s9fhSYIf-28" value="+ ecouteur()" style="text;strokeColor=none;fillColor=none;align=left;verticalAlign=top;spacingLeft=4;spacingRight=4;overflow=hidden;rotatable=0;points=[[0,0.5],[1,0.5]];portConstraint=eastwest;" parent="dIRDVUr5gUY7s9fhSYIf-25" vertex="1">
          <mxGeometry y="98" width="220" height="26" as="geometry" />
        </mxCell>
        <mxCell id="dIRDVUr5gUY7s9fhSYIf-30" value="Plateau" style="swimlane;fontStyle=1;align=center;verticalAlign=top;childLayout=stackLayout;horizontal=1;startSize=26;horizontalStack=0;resizeParent=1;resizeParentMax=0;resizeLast=0;collapsible=1;marginBottom=0;" parent="1" vertex="1">
          <mxGeometry x="200" y="430" width="220" height="124" as="geometry" />
        </mxCell>
        <mxCell id="dIRDVUr5gUY7s9fhSYIf-31" value="- posX : int&#xa;- posY : int&#xa;- longueur : int&#xa;- largeur : int&#xa;&#xa;" style="text;strokeColor=none;fillColor=none;align=left;verticalAlign=top;spacingLeft=4;spacingRight=4;overflow=hidden;rotatable=0;points=[[0,0.5],[1,0.5]];portConstraint=eastwest;" parent="dIRDVUr5gUY7s9fhSYIf-30" vertex="1">
          <mxGeometry y="26" width="220" height="64" as="geometry" />
        </mxCell>
        <mxCell id="dIRDVUr5gUY7s9fhSYIf-32" value="" style="line;strokeWidth=1;fillColor=none;align=left;verticalAlign=middle;spacingTop=-1;spacingLeft=3;spacingRight=3;rotatable=0;labelPosition=right;points=[];portConstraint=eastwest;strokeColor=inherit;" parent="dIRDVUr5gUY7s9fhSYIf-30" vertex="1">
          <mxGeometry y="90" width="220" height="8" as="geometry" />
        </mxCell>
        <mxCell id="dIRDVUr5gUY7s9fhSYIf-33" value=" " style="text;strokeColor=none;fillColor=none;align=left;verticalAlign=top;spacingLeft=4;spacingRight=4;overflow=hidden;rotatable=0;points=[[0,0.5],[1,0.5]];portConstraint=eastwest;" parent="dIRDVUr5gUY7s9fhSYIf-30" vertex="1">
          <mxGeometry y="98" width="220" height="26" as="geometry" />
        </mxCell>
        <mxCell id="dIRDVUr5gUY7s9fhSYIf-34" value="Joueur" style="swimlane;fontStyle=1;align=center;verticalAlign=top;childLayout=stackLayout;horizontal=1;startSize=26;horizontalStack=0;resizeParent=1;resizeParentMax=0;resizeLast=0;collapsible=1;marginBottom=0;" parent="1" vertex="1">
          <mxGeometry x="490" y="420" width="220" height="94" as="geometry" />
        </mxCell>
        <mxCell id="dIRDVUr5gUY7s9fhSYIf-35" value="- pseudo : String&#xa;" style="text;strokeColor=none;fillColor=none;align=left;verticalAlign=top;spacingLeft=4;spacingRight=4;overflow=hidden;rotatable=0;points=[[0,0.5],[1,0.5]];portConstraint=eastwest;" parent="dIRDVUr5gUY7s9fhSYIf-34" vertex="1">
          <mxGeometry y="26" width="220" height="34" as="geometry" />
        </mxCell>
        <mxCell id="dIRDVUr5gUY7s9fhSYIf-36" value="" style="line;strokeWidth=1;fillColor=none;align=left;verticalAlign=middle;spacingTop=-1;spacingLeft=3;spacingRight=3;rotatable=0;labelPosition=right;points=[];portConstraint=eastwest;strokeColor=inherit;" parent="dIRDVUr5gUY7s9fhSYIf-34" vertex="1">
          <mxGeometry y="60" width="220" height="8" as="geometry" />
        </mxCell>
        <mxCell id="dIRDVUr5gUY7s9fhSYIf-37" value=" " style="text;strokeColor=none;fillColor=none;align=left;verticalAlign=top;spacingLeft=4;spacingRight=4;overflow=hidden;rotatable=0;points=[[0,0.5],[1,0.5]];portConstraint=eastwest;" parent="dIRDVUr5gUY7s9fhSYIf-34" vertex="1">
          <mxGeometry y="68" width="220" height="26" as="geometry" />
        </mxCell>
        <mxCell id="dIRDVUr5gUY7s9fhSYIf-38" value="Jeu" style="swimlane;fontStyle=1;align=center;verticalAlign=top;childLayout=stackLayout;horizontal=1;startSize=26;horizontalStack=0;resizeParent=1;resizeParentMax=0;resizeLast=0;collapsible=1;marginBottom=0;" parent="1" vertex="1">
          <mxGeometry x="490" y="680" width="220" height="140" as="geometry" />
        </mxCell>
        <mxCell id="dIRDVUr5gUY7s9fhSYIf-39" value="- id : int&#xa;- nom : String&#xa;- maxJoueur : int&#xa;- nbBarrière" style="text;strokeColor=none;fillColor=none;align=left;verticalAlign=top;spacingLeft=4;spacingRight=4;overflow=hidden;rotatable=0;points=[[0,0.5],[1,0.5]];portConstraint=eastwest;" parent="dIRDVUr5gUY7s9fhSYIf-38" vertex="1">
          <mxGeometry y="26" width="220" height="64" as="geometry" />
        </mxCell>
        <mxCell id="dIRDVUr5gUY7s9fhSYIf-40" value="" style="line;strokeWidth=1;fillColor=none;align=left;verticalAlign=middle;spacingTop=-1;spacingLeft=3;spacingRight=3;rotatable=0;labelPosition=right;points=[];portConstraint=eastwest;strokeColor=inherit;" parent="dIRDVUr5gUY7s9fhSYIf-38" vertex="1">
          <mxGeometry y="90" width="220" height="8" as="geometry" />
        </mxCell>
        <mxCell id="dIRDVUr5gUY7s9fhSYIf-41" value="+ deplacement(Element,Case)&#xa;+ gestionTour()&#xa;" style="text;strokeColor=none;fillColor=none;align=left;verticalAlign=top;spacingLeft=4;spacingRight=4;overflow=hidden;rotatable=0;points=[[0,0.5],[1,0.5]];portConstraint=eastwest;" parent="dIRDVUr5gUY7s9fhSYIf-38" vertex="1">
          <mxGeometry y="98" width="220" height="42" as="geometry" />
        </mxCell>
        <mxCell id="dIRDVUr5gUY7s9fhSYIf-42" value="ou" style="html=1;verticalAlign=bottom;endArrow=none;dashed=1;endSize=8;edgeStyle=elbowEdgeStyle;elbow=vertical;curved=0;rounded=0;endFill=0;exitX=0;exitY=0.5;exitDx=0;exitDy=0;entryX=1;entryY=0.5;entryDx=0;entryDy=0;" parent="1" source="3Rz-C_fRMMW0dZHXcKt9-18" target="3Rz-C_fRMMW0dZHXcKt9-19" edge="1">
          <mxGeometry relative="1" as="geometry">
            <mxPoint x="620" y="599.5" as="sourcePoint" />
            <mxPoint x="540" y="599.5" as="targetPoint" />
          </mxGeometry>
        </mxCell>
        <mxCell id="dIRDVUr5gUY7s9fhSYIf-51" value="Messagerie" style="swimlane;fontStyle=1;align=center;verticalAlign=top;childLayout=stackLayout;horizontal=1;startSize=26;horizontalStack=0;resizeParent=1;resizeParentMax=0;resizeLast=0;collapsible=1;marginBottom=0;" parent="1" vertex="1">
          <mxGeometry x="760" y="534.5" width="220" height="80" as="geometry" />
        </mxCell>
        <mxCell id="dIRDVUr5gUY7s9fhSYIf-52" value=" " style="text;strokeColor=none;fillColor=none;align=left;verticalAlign=top;spacingLeft=4;spacingRight=4;overflow=hidden;rotatable=0;points=[[0,0.5],[1,0.5]];portConstraint=eastwest;" parent="dIRDVUr5gUY7s9fhSYIf-51" vertex="1">
          <mxGeometry y="26" width="220" height="24" as="geometry" />
        </mxCell>
        <mxCell id="dIRDVUr5gUY7s9fhSYIf-53" value="" style="line;strokeWidth=1;fillColor=none;align=left;verticalAlign=middle;spacingTop=-1;spacingLeft=3;spacingRight=3;rotatable=0;labelPosition=right;points=[];portConstraint=eastwest;strokeColor=inherit;" parent="dIRDVUr5gUY7s9fhSYIf-51" vertex="1">
          <mxGeometry y="50" width="220" height="8" as="geometry" />
        </mxCell>
        <mxCell id="dIRDVUr5gUY7s9fhSYIf-54" value=" &#xa;&#xa;" style="text;strokeColor=none;fillColor=none;align=left;verticalAlign=top;spacingLeft=4;spacingRight=4;overflow=hidden;rotatable=0;points=[[0,0.5],[1,0.5]];portConstraint=eastwest;" parent="dIRDVUr5gUY7s9fhSYIf-51" vertex="1">
          <mxGeometry y="58" width="220" height="22" as="geometry" />
        </mxCell>
        <mxCell id="dIRDVUr5gUY7s9fhSYIf-55" value="&lt;div&gt;&lt;br&gt;&lt;/div&gt;" style="html=1;verticalAlign=bottom;endArrow=none;endSize=8;edgeStyle=elbowEdgeStyle;elbow=vertical;curved=0;rounded=0;endFill=0;entryX=1;entryY=0.5;entryDx=0;entryDy=0;" parent="1" source="dIRDVUr5gUY7s9fhSYIf-54" edge="1">
          <mxGeometry relative="1" as="geometry">
            <mxPoint x="850" y="750.1800000000001" as="sourcePoint" />
            <mxPoint x="710" y="750.1800000000001" as="targetPoint" />
            <Array as="points">
              <mxPoint x="860" y="740" />
              <mxPoint x="800" y="750" />
            </Array>
          </mxGeometry>
        </mxCell>
        <mxCell id="eeULFgyOEKWC4nzDJ71u-7" value="1" style="edgeLabel;html=1;align=center;verticalAlign=middle;resizable=0;points=[];" parent="dIRDVUr5gUY7s9fhSYIf-55" vertex="1" connectable="0">
          <mxGeometry x="-0.323" y="2" relative="1" as="geometry">
            <mxPoint x="8" y="-81" as="offset" />
          </mxGeometry>
        </mxCell>
        <mxCell id="eeULFgyOEKWC4nzDJ71u-8" value="1" style="edgeLabel;html=1;align=center;verticalAlign=middle;resizable=0;points=[];" parent="dIRDVUr5gUY7s9fhSYIf-55" vertex="1" connectable="0">
          <mxGeometry x="0.6313" y="-2" relative="1" as="geometry">
            <mxPoint x="-51" y="-8" as="offset" />
          </mxGeometry>
        </mxCell>
        <mxCell id="eeULFgyOEKWC4nzDJ71u-16" style="edgeStyle=orthogonalEdgeStyle;rounded=0;orthogonalLoop=1;jettySize=auto;html=1;endArrow=none;endFill=0;dashed=1;" parent="1" source="eeULFgyOEKWC4nzDJ71u-15" edge="1">
          <mxGeometry relative="1" as="geometry">
            <mxPoint x="540" y="360" as="targetPoint" />
          </mxGeometry>
        </mxCell>
        <mxCell id="eeULFgyOEKWC4nzDJ71u-15" value="Un joueur possède 1 Pion&lt;br&gt;Un joueur possède n Mur&amp;nbsp;" style="shape=note;whiteSpace=wrap;html=1;backgroundOutline=1;darkOpacity=0.05;" parent="1" vertex="1">
          <mxGeometry x="710" y="330" width="240" height="60" as="geometry" />
        </mxCell>
        <mxCell id="7hVK-7BaPxIFwq0YClWG-5" style="edgeStyle=orthogonalEdgeStyle;rounded=0;orthogonalLoop=1;jettySize=auto;html=1;entryX=0.5;entryY=1;entryDx=0;entryDy=0;entryPerimeter=0;endArrow=none;endFill=0;" edge="1" parent="1" source="7hVK-7BaPxIFwq0YClWG-1" target="dIRDVUr5gUY7s9fhSYIf-41">
          <mxGeometry relative="1" as="geometry" />
        </mxCell>
        <mxCell id="7hVK-7BaPxIFwq0YClWG-7" value="1" style="edgeLabel;html=1;align=center;verticalAlign=middle;resizable=0;points=[];" vertex="1" connectable="0" parent="7hVK-7BaPxIFwq0YClWG-5">
          <mxGeometry x="0.7549" y="-1" relative="1" as="geometry">
            <mxPoint x="9" as="offset" />
          </mxGeometry>
        </mxCell>
        <mxCell id="7hVK-7BaPxIFwq0YClWG-8" value="1" style="edgeLabel;html=1;align=center;verticalAlign=middle;resizable=0;points=[];" vertex="1" connectable="0" parent="7hVK-7BaPxIFwq0YClWG-5">
          <mxGeometry x="-0.7193" y="1" relative="1" as="geometry">
            <mxPoint x="-9" as="offset" />
          </mxGeometry>
        </mxCell>
        <mxCell id="7hVK-7BaPxIFwq0YClWG-1" value="Controleur" style="swimlane;fontStyle=1;align=center;verticalAlign=top;childLayout=stackLayout;horizontal=1;startSize=26;horizontalStack=0;resizeParent=1;resizeParentMax=0;resizeLast=0;collapsible=1;marginBottom=0;" vertex="1" parent="1">
          <mxGeometry x="490" y="890" width="220" height="100" as="geometry" />
        </mxCell>
        <mxCell id="7hVK-7BaPxIFwq0YClWG-2" value=" " style="text;strokeColor=none;fillColor=none;align=left;verticalAlign=top;spacingLeft=4;spacingRight=4;overflow=hidden;rotatable=0;points=[[0,0.5],[1,0.5]];portConstraint=eastwest;" vertex="1" parent="7hVK-7BaPxIFwq0YClWG-1">
          <mxGeometry y="26" width="220" height="24" as="geometry" />
        </mxCell>
        <mxCell id="7hVK-7BaPxIFwq0YClWG-3" value="" style="line;strokeWidth=1;fillColor=none;align=left;verticalAlign=middle;spacingTop=-1;spacingLeft=3;spacingRight=3;rotatable=0;labelPosition=right;points=[];portConstraint=eastwest;strokeColor=inherit;" vertex="1" parent="7hVK-7BaPxIFwq0YClWG-1">
          <mxGeometry y="50" width="220" height="8" as="geometry" />
        </mxCell>
        <mxCell id="7hVK-7BaPxIFwq0YClWG-4" value="+ controleDeplacement()&#xa;+ controleInitialisation()" style="text;strokeColor=none;fillColor=none;align=left;verticalAlign=top;spacingLeft=4;spacingRight=4;overflow=hidden;rotatable=0;points=[[0,0.5],[1,0.5]];portConstraint=eastwest;" vertex="1" parent="7hVK-7BaPxIFwq0YClWG-1">
          <mxGeometry y="58" width="220" height="42" as="geometry" />
        </mxCell>
      </root>
    </mxGraphModel>
  </diagram>
</mxfile>
